<svg width="40" height="40" viewBox="0 0 40 40" fill="none" xmlns="http://www.w3.org/2000/svg">
<path d="M12.2713 0H5.17909C3.42333 0 2 1.4217 2 3.17545V36.8246C2 38.5783 3.42333 40 5.17909 40H12.2713C14.0271 40 15.4504 38.5783 15.4504 36.8246V3.17545C15.4504 1.4217 14.0271 0 12.2713 0Z" fill="#0054C2"/>
<path d="M35.9679 0.259206C31.705 0.868842 27.7548 2.84242 24.7098 5.88399C21.6647 8.92555 19.6889 12.8712 19.0786 17.1292C19.0295 17.4796 19.0563 17.8364 19.157 18.1756C19.2578 18.5147 19.4303 18.8284 19.6628 19.0953C19.8953 19.3622 20.1824 19.5762 20.5048 19.7228C20.8271 19.8694 21.1772 19.9452 21.5314 19.9452H36.3109C36.9661 19.9452 37.5947 19.6856 38.0586 19.2234C38.5226 18.7612 38.7841 18.1341 38.7858 17.4796V2.70925C38.7861 2.35551 38.7103 2.00583 38.5637 1.68385C38.417 1.36186 38.2029 1.07505 37.9358 0.842806C37.6687 0.610557 37.3548 0.438274 37.0153 0.337595C36.6758 0.236915 36.3186 0.210184 35.9679 0.259206Z" fill="#0054C2"/>
</svg>
